<?xml version="1.0" encoding="UTF-8" standalone="no"?>
<!-- Generator: Adobe Illustrator 16.0.3, SVG Export Plug-In . SVG Version: 6.00 Build 0)  -->
<!DOCTYPE svg  PUBLIC '-//W3C//DTD SVG 1.1//EN'  'http://www.w3.org/Graphics/SVG/1.1/DTD/svg11.dtd'>
<svg id="Layer_1" xmlns="http://www.w3.org/2000/svg" xml:space="preserve" height="330px" viewBox="-10 -10 250 330" width="250px" version="1.1" y="0px" x="0px" xmlns:xlink="http://www.w3.org/1999/xlink" enable-background="new -10 -10 250 330">
	<filter id="blur">
		<feGaussianBlur in="SourceGraphic" stdDeviation="5" />
	</filter>
	<g filter="url(#blur)">
		<polygon points="79.077 21.44 73.3 24.776 148.28 160.64 155.53 156.45" fill="#323232"/>
		<polygon points="115 0.702 90.219 15.007 160.95 145.6 160.95 27.228" fill="#323232"/>
		<polygon points="172.71 34.021 172.71 146.53 192.58 135.06 192.58 45.489" fill="#323232"/>
		<polygon points="69.052 37.5 69.052 153.32 115 179.85 137.26 167" fill="#323232"/>
		<polygon points="57.289 34.021 37.427 45.489 37.427 135.06 57.289 146.53" fill="#323232"/>
		<polygon points="35.336 220.52 35.336 248.4 13.638 220.52 0 220.52 0 273.26 14.466 273.26 14.466 244.33 36.996 273.26 49.802 273.26 49.802 220.52" fill="#323232"/>
		<polygon points="61.021 220.52 103.44 220.52 103.44 232.95 75.488 232.95 75.488 240.94 100.8 240.94 100.8 252.46 75.488 252.46 75.488 260.83 103.82 260.83 103.82 273.26 61.021 273.26" fill="#323232"/>
		<polygon points="113.15 220.52 127.77 220.52 127.77 260.45 153.31 260.45 153.31 273.26 113.15 273.26" fill="#323232"/>
		<rect y="220.52" x="161.74" height="52.742" width="14.689" fill="#323232"/>
		<path d="m183.97 265.42l8.137-9.722c5.197 4.146 11 6.33 17.103 6.33 3.919 0 6.026-1.354 6.026-3.613v-0.151c0-2.185-1.731-3.392-8.891-5.047-11.226-2.563-19.89-5.729-19.89-16.576v-0.151c0-9.793 7.76-16.877 20.416-16.877 8.966 0 15.976 2.412 21.7 7.008l-7.309 10.322c-4.822-3.394-10.098-5.197-14.768-5.197-3.542 0-5.273 1.504-5.273 3.389v0.15c0 2.412 1.809 3.467 9.115 5.125 12.133 2.635 19.665 6.555 19.665 16.424v0.152c0 10.771-8.513 17.176-21.323 17.176-9.361 0.01-18.25-2.92-24.73-8.73" fill="#323232"/>
		<path d="m45.404 292.59h1.169l7.619 16.473h-1.334l-2.078-4.577h-9.651l-2.078 4.577h-1.262l7.615-16.47zm4.861 10.8l-4.299-9.461-4.323 9.461h8.622z" fill="#323232"/>
		<polygon points="57.65 292.71 58.794 292.71 65.361 302.38 71.926 292.71 73.072 292.71 73.072 309.07 71.855 309.07 71.855 294.86 65.383 304.28 65.29 304.28 58.819 294.86 58.819 309.07 57.65 309.07" fill="#323232"/>
		<path d="m83.468 309.3c-1.308 0-2.489-0.217-3.54-0.654-1.051-0.434-2.067-1.09-3.048-1.961l0.793-0.91c0.452 0.418 0.899 0.781 1.344 1.084 0.443 0.305 0.899 0.553 1.367 0.75 0.468 0.191 0.958 0.34 1.472 0.441 0.515 0.102 1.075 0.152 1.683 0.152s1.167-0.082 1.684-0.246c0.512-0.162 0.948-0.389 1.308-0.68 0.357-0.285 0.638-0.627 0.84-1.025 0.203-0.396 0.305-0.83 0.305-1.295v-0.049c0-0.437-0.065-0.826-0.198-1.168-0.133-0.343-0.374-0.654-0.725-0.935-0.352-0.28-0.822-0.535-1.412-0.76-0.594-0.226-1.357-0.435-2.291-0.619-0.982-0.201-1.823-0.438-2.523-0.713-0.701-0.273-1.274-0.593-1.719-0.959-0.443-0.363-0.766-0.789-0.969-1.271-0.202-0.484-0.305-1.037-0.305-1.66v-0.047c0-0.607 0.134-1.173 0.398-1.695 0.264-0.521 0.63-0.976 1.098-1.365s1.021-0.693 1.658-0.91c0.641-0.219 1.341-0.33 2.104-0.33 1.184 0 2.208 0.164 3.073 0.492 0.863 0.326 1.708 0.826 2.533 1.496l-0.771 0.955c-0.779-0.666-1.562-1.145-2.349-1.422-0.786-0.281-1.632-0.422-2.535-0.422-0.607 0-1.155 0.082-1.647 0.244-0.489 0.164-0.91 0.387-1.26 0.668-0.353 0.28-0.62 0.606-0.808 0.979-0.187 0.375-0.28 0.771-0.28 1.19v0.047c0 0.438 0.066 0.83 0.2 1.181 0.131 0.353 0.373 0.67 0.724 0.959 0.35 0.287 0.837 0.549 1.46 0.783 0.621 0.231 1.416 0.45 2.384 0.651 1.899 0.39 3.271 0.941 4.111 1.65 0.84 0.707 1.261 1.662 1.261 2.861v0.045c0 0.656-0.136 1.26-0.408 1.813-0.273 0.551-0.647 1.025-1.121 1.412-0.477 0.389-1.045 0.693-1.705 0.912-0.663 0.24-1.392 0.35-2.186 0.35" fill="#323232"/>
		<polygon points="97.417 293.81 91.715 293.81 91.715 292.71 104.33 292.71 104.33 293.81 98.633 293.81 98.633 309.07 97.417 309.07" fill="#323232"/>
		<polygon points="108.03 292.71 119.66 292.71 119.66 293.81 109.24 293.81 109.24 300.28 118.61 300.28 118.61 301.38 109.24 301.38 109.24 307.97 119.78 307.97 119.78 309.07 108.03 309.07" fill="#323232"/>
		<path d="m123.68 292.71h6.873c1.01 0 1.905 0.143 2.684 0.432 0.781 0.287 1.42 0.682 1.916 1.18 0.391 0.392 0.693 0.846 0.912 1.367 0.22 0.521 0.328 1.08 0.328 1.67v0.047c0 0.687-0.121 1.297-0.361 1.834-0.242 0.535-0.577 1-1.006 1.394-0.428 0.389-0.936 0.703-1.52 0.942-0.585 0.242-1.22 0.41-1.904 0.504l5.397 6.986h-1.542l-5.21-6.777h-5.353v6.777h-1.215v-16.35zm6.73 8.48c0.686 0 1.318-0.086 1.904-0.256 0.582-0.174 1.084-0.42 1.506-0.737 0.42-0.322 0.752-0.714 0.994-1.175 0.24-0.461 0.359-0.989 0.359-1.582v-0.047c0-1.108-0.408-1.983-1.227-2.625-0.817-0.642-1.975-0.961-3.469-0.961h-5.586v7.383h5.53z" fill="#323232"/>
		<path d="m140.57 292.71h5.445c1.276 0 2.449 0.207 3.517 0.621 1.067 0.412 1.985 0.983 2.757 1.717 0.771 0.734 1.365 1.592 1.788 2.58 0.42 0.99 0.63 2.063 0.63 3.213v0.047c0 1.152-0.21 2.229-0.63 3.225-0.423 1-1.019 1.863-1.788 2.596-0.771 0.73-1.689 1.31-2.757 1.728-1.066 0.423-2.239 0.634-3.517 0.634h-5.445v-16.371zm5.45 15.26c1.138 0 2.166-0.184 3.084-0.553 0.92-0.365 1.699-0.865 2.336-1.498 0.639-0.633 1.136-1.375 1.485-2.227 0.351-0.853 0.522-1.771 0.522-2.757v-0.047c0-0.969-0.174-1.883-0.522-2.742-0.351-0.856-0.848-1.608-1.485-2.252-0.637-0.639-1.416-1.146-2.336-1.521-0.918-0.377-1.946-0.563-3.084-0.563h-4.229v14.158h4.23z" fill="#323232"/>
		<path d="m165.06 292.59h1.17l7.617 16.473h-1.334l-2.078-4.577h-9.65l-2.078 4.577h-1.262l7.609-16.47zm4.86 10.8l-4.299-9.461-4.323 9.461h8.62z" fill="#323232"/>
		<polygon points="177.3 292.71 178.45 292.71 185.02 302.38 191.58 292.71 192.73 292.71 192.73 309.07 191.51 309.07 191.51 294.86 185.04 304.28 184.94 304.28 178.47 294.86 178.47 309.07 177.3 309.07" fill="#323232"/>
		<line y1="301.84" x2="229.73" x1="208.96" y2="301.84" fill="none"/>
		<rect y="301.27" x="208.96" height="1.144" width="20.771" fill="#323232"/>
		<line y1="302.41" x2="20.768" y2="302.41" fill="none"/>
		<rect y="301.84" width="20.768" height="1.141" fill="#323232"/>
	</g>
	<g>
		<polygon points="79.077 21.44 73.3 24.776 148.28 160.64 155.53 156.45" fill="#fff"/>
		<polygon points="115 0.702 90.219 15.007 160.95 145.6 160.95 27.228" fill="#fff"/>
		<polygon points="172.71 34.021 172.71 146.53 192.58 135.06 192.58 45.489" fill="#fff"/>
		<polygon points="69.052 37.5 69.052 153.32 115 179.85 137.26 167" fill="#fff"/>
		<polygon points="57.289 34.021 37.427 45.489 37.427 135.06 57.289 146.53" fill="#fff"/>
		<polygon points="35.336 220.52 35.336 248.4 13.638 220.52 0 220.52 0 273.26 14.466 273.26 14.466 244.33 36.996 273.26 49.802 273.26 49.802 220.52" fill="#fff"/>
		<polygon points="61.021 220.52 103.44 220.52 103.44 232.95 75.488 232.95 75.488 240.94 100.8 240.94 100.8 252.46 75.488 252.46 75.488 260.83 103.82 260.83 103.82 273.26 61.021 273.26" fill="#fff"/>
		<polygon points="113.15 220.52 127.77 220.52 127.77 260.45 153.31 260.45 153.31 273.26 113.15 273.26" fill="#fff"/>
		<rect y="220.52" x="161.74" height="52.742" width="14.689" fill="#fff"/>
		<path d="m183.97 265.42l8.137-9.722c5.197 4.146 11 6.33 17.103 6.33 3.919 0 6.026-1.354 6.026-3.613v-0.151c0-2.185-1.731-3.392-8.891-5.047-11.226-2.563-19.89-5.729-19.89-16.576v-0.151c0-9.793 7.76-16.877 20.416-16.877 8.966 0 15.976 2.412 21.7 7.008l-7.309 10.322c-4.822-3.394-10.098-5.197-14.768-5.197-3.542 0-5.273 1.504-5.273 3.389v0.15c0 2.412 1.809 3.467 9.115 5.125 12.133 2.635 19.665 6.555 19.665 16.424v0.152c0 10.771-8.513 17.176-21.323 17.176-9.361 0.01-18.25-2.92-24.73-8.73" fill="#fff"/>
		<path d="m45.404 292.59h1.169l7.619 16.473h-1.334l-2.078-4.577h-9.651l-2.078 4.577h-1.262l7.615-16.47zm4.861 10.8l-4.299-9.461-4.323 9.461h8.622z" fill="#fff"/>
		<polygon points="57.65 292.71 58.794 292.71 65.361 302.38 71.926 292.71 73.072 292.71 73.072 309.07 71.855 309.07 71.855 294.86 65.383 304.28 65.29 304.28 58.819 294.86 58.819 309.07 57.65 309.07" fill="#fff"/>
		<path d="m83.468 309.3c-1.308 0-2.489-0.217-3.54-0.654-1.051-0.434-2.067-1.09-3.048-1.961l0.793-0.91c0.452 0.418 0.899 0.781 1.344 1.084 0.443 0.305 0.899 0.553 1.367 0.75 0.468 0.191 0.958 0.34 1.472 0.441 0.515 0.102 1.075 0.152 1.683 0.152s1.167-0.082 1.684-0.246c0.512-0.162 0.948-0.389 1.308-0.68 0.357-0.285 0.638-0.627 0.84-1.025 0.203-0.396 0.305-0.83 0.305-1.295v-0.049c0-0.437-0.065-0.826-0.198-1.168-0.133-0.343-0.374-0.654-0.725-0.935-0.352-0.28-0.822-0.535-1.412-0.76-0.594-0.226-1.357-0.435-2.291-0.619-0.982-0.201-1.823-0.438-2.523-0.713-0.701-0.273-1.274-0.593-1.719-0.959-0.443-0.363-0.766-0.789-0.969-1.271-0.202-0.484-0.305-1.037-0.305-1.66v-0.047c0-0.607 0.134-1.173 0.398-1.695 0.264-0.521 0.63-0.976 1.098-1.365s1.021-0.693 1.658-0.91c0.641-0.219 1.341-0.33 2.104-0.33 1.184 0 2.208 0.164 3.073 0.492 0.863 0.326 1.708 0.826 2.533 1.496l-0.771 0.955c-0.779-0.666-1.562-1.145-2.349-1.422-0.786-0.281-1.632-0.422-2.535-0.422-0.607 0-1.155 0.082-1.647 0.244-0.489 0.164-0.91 0.387-1.26 0.668-0.353 0.28-0.62 0.606-0.808 0.979-0.187 0.375-0.28 0.771-0.28 1.19v0.047c0 0.438 0.066 0.83 0.2 1.181 0.131 0.353 0.373 0.67 0.724 0.959 0.35 0.287 0.837 0.549 1.46 0.783 0.621 0.231 1.416 0.45 2.384 0.651 1.899 0.39 3.271 0.941 4.111 1.65 0.84 0.707 1.261 1.662 1.261 2.861v0.045c0 0.656-0.136 1.26-0.408 1.813-0.273 0.551-0.647 1.025-1.121 1.412-0.477 0.389-1.045 0.693-1.705 0.912-0.663 0.24-1.392 0.35-2.186 0.35" fill="#fff"/>
		<polygon points="97.417 293.81 91.715 293.81 91.715 292.71 104.33 292.71 104.33 293.81 98.633 293.81 98.633 309.07 97.417 309.07" fill="#fff"/>
		<polygon points="108.03 292.71 119.66 292.71 119.66 293.81 109.24 293.81 109.24 300.28 118.61 300.28 118.61 301.38 109.24 301.38 109.24 307.97 119.78 307.97 119.78 309.07 108.03 309.07" fill="#fff"/>
		<path d="m123.68 292.71h6.873c1.01 0 1.905 0.143 2.684 0.432 0.781 0.287 1.42 0.682 1.916 1.18 0.391 0.392 0.693 0.846 0.912 1.367 0.22 0.521 0.328 1.08 0.328 1.67v0.047c0 0.687-0.121 1.297-0.361 1.834-0.242 0.535-0.577 1-1.006 1.394-0.428 0.389-0.936 0.703-1.52 0.942-0.585 0.242-1.22 0.41-1.904 0.504l5.397 6.986h-1.542l-5.21-6.777h-5.353v6.777h-1.215v-16.35zm6.73 8.48c0.686 0 1.318-0.086 1.904-0.256 0.582-0.174 1.084-0.42 1.506-0.737 0.42-0.322 0.752-0.714 0.994-1.175 0.24-0.461 0.359-0.989 0.359-1.582v-0.047c0-1.108-0.408-1.983-1.227-2.625-0.817-0.642-1.975-0.961-3.469-0.961h-5.586v7.383h5.53z" fill="#fff"/>
		<path d="m140.57 292.71h5.445c1.276 0 2.449 0.207 3.517 0.621 1.067 0.412 1.985 0.983 2.757 1.717 0.771 0.734 1.365 1.592 1.788 2.58 0.42 0.99 0.63 2.063 0.63 3.213v0.047c0 1.152-0.21 2.229-0.63 3.225-0.423 1-1.019 1.863-1.788 2.596-0.771 0.73-1.689 1.31-2.757 1.728-1.066 0.423-2.239 0.634-3.517 0.634h-5.445v-16.371zm5.45 15.26c1.138 0 2.166-0.184 3.084-0.553 0.92-0.365 1.699-0.865 2.336-1.498 0.639-0.633 1.136-1.375 1.485-2.227 0.351-0.853 0.522-1.771 0.522-2.757v-0.047c0-0.969-0.174-1.883-0.522-2.742-0.351-0.856-0.848-1.608-1.485-2.252-0.637-0.639-1.416-1.146-2.336-1.521-0.918-0.377-1.946-0.563-3.084-0.563h-4.229v14.158h4.23z" fill="#fff"/>
		<path d="m165.06 292.59h1.17l7.617 16.473h-1.334l-2.078-4.577h-9.65l-2.078 4.577h-1.262l7.609-16.47zm4.86 10.8l-4.299-9.461-4.323 9.461h8.62z" fill="#fff"/>
		<polygon points="177.3 292.71 178.45 292.71 185.02 302.38 191.58 292.71 192.73 292.71 192.73 309.07 191.51 309.07 191.51 294.86 185.04 304.28 184.94 304.28 178.47 294.86 178.47 309.07 177.3 309.07" fill="#fff"/>
		<line y1="301.84" x2="229.73" x1="208.96" y2="301.84" fill="none"/>
		<rect y="301.27" x="208.96" height="1.144" width="20.771" fill="#fff"/>
		<line y1="302.41" x2="20.768" y2="302.41" fill="none"/>
		<rect y="301.84" width="20.768" height="1.141" fill="#fff"/>
	</g>
</svg>
